<svg aria-hidden="true" style="position:absolute;width:0;height:0;overflow:hidden" xmlns="http://www.w3.org/2000/svg">
  <defs>
    <symbol id="icon-arrow-right" viewBox="0 0 32 32">
      <path d="M8.41 29.8a2.14 2.14 0 0 1-.08-3.03l11.04-11.65L7.72 4.08A2.15 2.15 0 0 1 10.68.96l13.2 12.52a2.14 2.14 0 0 1 .08 3.04l-12.52 13.2a2.14 2.14 0 0 1-3.03.08z"/>
    </symbol>
    <symbol id="icon-arrow-left" viewBox="0 0 32 32">
      <path d="M24.03.67a2.29 2.29 0 0 1 0 3.23l-12.1 12.11 12.1 12.11a2.29 2.29 0 0 1-3.23 3.24L7.07 17.63a2.29 2.29 0 0 1 0-3.23L20.8.67a2.29 2.29 0 0 1 3.23 0z"/>
    </symbol>
    <symbol id="icon-play-circle" viewBox="0 0 32 32">
      <path fill="#fff" style="fill:var(--color1, #fff)" d="M16 2.67a13.34 13.34 0 1 0 0 26.67 13.34 13.34 0 0 0 0-26.67zm0 24a10.67 10.67 0 1 1 0-21.33 10.67 10.67 0 0 1 0 21.33z"/>
      <path fill="#fff" style="fill:var(--color1, #fff)" d="M16.45 9.93a2.28 2.28 0 0 0-2.46-.4 2.14 2.14 0 0 0-1.34 1.98v8.98c0 .43.13.84.37 1.2s.57.62.97.78a2.25 2.25 0 0 0 2.46-.4l4.88-4.5a2.15 2.15 0 0 0 .52-2.43c-.12-.27-.3-.51-.52-.71l-4.88-4.5zm-1.12 9.54v-6.94L19.08 16l-3.75 3.47z"/>
    </symbol>
    <symbol id="icon-heart" viewBox="0 0 32 32">
      <path d="M16 28C15.8245 28.001 15.6506 27.9673 15.4881 27.901C15.3257 27.8346 15.1779 27.7369 15.0533 27.6133L4.69334 17.24C3.39382 15.9269 2.66489 14.1541 2.66489 12.3066C2.66489 10.4592 3.39382 8.68639 4.69334 7.37329C6.00302 6.06731 7.77711 5.33392 9.62667 5.33392C11.4762 5.33392 13.2503 6.06731 14.56 7.37329L16 8.81329L17.44 7.37329C18.7497 6.06731 20.5238 5.33392 22.3733 5.33392C24.2229 5.33392 25.997 6.06731 27.3067 7.37329C28.6062 8.68639 29.3351 10.4592 29.3351 12.3066C29.3351 14.1541 28.6062 15.9269 27.3067 17.24L16.9467 27.6133C16.8221 27.7369 16.6743 27.8346 16.5119 27.901C16.3494 27.9673 16.1755 28.001 16 28Z"/>
    </symbol>
    <symbol id="icon-browser" viewBox="0 0 32 32">
      <path d="M24 4H8a4 4 0 0 0-4 4v16a4 4 0 0 0 4 4h16a4 4 0 0 0 4-4V8a4 4 0 0 0-4-4zm-8 4a1.33 1.33 0 1 1 0 2.67A1.33 1.33 0 0 1 16 8zm-5.33 0a1.33 1.33 0 1 1 0 2.67 1.33 1.33 0 0 1 0-2.67zm14.66 16c0 .35-.14.7-.39.94s-.59.4-.94.4H8A1.33 1.33 0 0 1 6.66 24v-9.33h18.67V24z"/>
    </symbol>
    <symbol id="icon-pricetags" viewBox="0 0 32 32">
      <path d="M16.81 28.74a2.4 2.4 0 0 1-1.68-.7l-8.38-8.38a1.3 1.3 0 0 1-.38-.8L5.23 6.65A1.3 1.3 0 0 1 5.6 5.6a1.3 1.3 0 0 1 1.05-.38l12.21 1.15c.3.03.59.17.8.38l8.39 8.38a2.38 2.38 0 0 1 0 3.35l-9.57 9.56c-.44.45-1.04.7-1.67.7zm-7.84-10.6 7.84 7.84 9.21-9.2-7.84-7.85-10.2-.95 1 10.16z"/>
      <path d="M13.71 15.68a1.96 1.96 0 1 0 0-3.92 1.96 1.96 0 0 0 0 3.92z"/>
    </symbol>
    <symbol id="icon-arrow-up" viewBox="0 0 32 32">
      <path d="M16.04 11c.28 0 .55.1.76.28l7.14 6.15c.24.21.4.51.43.84s-.06.66-.26.92-.48.42-.79.46c-.3.03-.62-.06-.86-.27l-6.38-5.52-6.22 5.49c-.12.1-.26.18-.4.23s-.31.07-.47.05c-.15-.01-.3-.06-.44-.14s-.25-.18-.35-.3a1.27 1.27 0 0 1-.3-.95 1.3 1.3 0 0 1 .44-.88l6.97-6.14c.21-.16.47-.24.73-.22z"/>
    </symbol>
    <symbol id="icon-arrow-down" viewBox="0 0 32 32">
      <path d="M16.12 21.33c-.3 0-.58-.1-.8-.3l-7.53-6.67a1.4 1.4 0 0 1-.16-1.88c.21-.27.52-.45.85-.48s.66.08.92.3l6.72 5.98 6.72-5.76a1.21 1.21 0 0 1 .92-.3 1.2 1.2 0 0 1 .85.5c.11.14.2.3.25.47s.07.36.06.54a1.38 1.38 0 0 1-.49.94l-7.52 6.44a1.2 1.2 0 0 1-.8.22z"/>
    </symbol>
    <symbol id="icon-options" viewBox="0 0 32 32">
      <path d="M24.93 11.8a3.94 3.94 0 0 0-3.7 2.63H3.93a1.31 1.31 0 1 0 0 2.63h17.3a3.93 3.93 0 1 0 3.7-5.25zm0 5.26a1.32 1.32 0 0 1-.26-2.6 1.3 1.3 0 0 1 1.35.56 1.31 1.31 0 0 1-1.1 2.04zM3.94 9.18h1.54a3.94 3.94 0 0 0 7.4 0h14.67a1.31 1.31 0 1 0 0-2.62H12.88a3.94 3.94 0 0 0-7.4 0H3.94a1.31 1.31 0 1 0 0 2.62zm5.24-2.62a1.32 1.32 0 0 1 .26 2.6 1.3 1.3 0 0 1-1.35-.56 1.31 1.31 0 0 1 1.1-2.04zM27.55 22.3h-9.42a3.94 3.94 0 0 0-7.4 0h-6.8a1.31 1.31 0 1 0 0 2.63h6.8a3.94 3.94 0 0 0 7.4 0h9.42a1.31 1.31 0 1 0 0-2.63zm-13.12 2.63a1.32 1.32 0 0 1-.25-2.6 1.3 1.3 0 0 1 1.34.56 1.31 1.31 0 0 1-1.09 2.04z"/>
    </symbol>
    <symbol id="icon-search" viewBox="0 0 32 32">
      <path d="M12.28 3.73a9.2 9.2 0 1 0 0 18.42 9.2 9.2 0 0 0 0-18.42zM0 12.94a12.27 12.27 0 1 1 21.97 7.53l8.27 8.26a1.54 1.54 0 0 1-1.1 2.6c-.4 0-.78-.15-1.07-.43l-8.27-8.26A12.28 12.28 0 0 1 0 12.94z"/>
    </symbol>
  </defs>
</svg>
